<svg width="40" height="40" viewBox="0 0 40 40" fill="none" xmlns="http://www.w3.org/2000/svg">
<path d="M29.1112 34.6112L18.5833 24C17.9721 24.2222 17.3587 24.3982 16.7428 24.5279C16.1273 24.6574 15.4907 24.7221 14.8332 24.7221C12.1094 24.7221 9.79422 23.7715 7.88783 21.8704C5.98117 19.969 5.02783 17.6604 5.02783 14.9446C5.02783 14.0371 5.14964 13.1607 5.39325 12.3154C5.63686 11.4704 5.97797 10.6708 6.41658 9.91667L12.472 15.9721L16.0278 12.5833L9.86117 6.41667C10.6095 5.96917 11.4031 5.62125 12.242 5.37292C13.0806 5.12431 13.9444 5 14.8332 5C17.5955 5 19.9435 5.9668 21.8774 7.90042C23.811 9.83403 24.7778 12.1821 24.7778 14.9446C24.7778 15.6018 24.713 16.2383 24.5833 16.8542C24.4535 17.47 24.2776 18.0835 24.0553 18.6946L34.6387 29.2221C34.9537 29.5362 35.1112 29.9157 35.1112 30.3604C35.1112 30.8054 34.9537 31.1853 34.6387 31.5L31.3612 34.6112C31.052 34.926 30.6784 35.0833 30.2403 35.0833C29.8023 35.0833 29.4259 34.926 29.1112 34.6112ZM30.2916 31.8471L31.7778 30.3612L20.6387 19.2221C21.1017 18.6482 21.4444 17.9746 21.6666 17.2013C21.8888 16.4282 21.9999 15.676 21.9999 14.9446C21.9999 13.0001 21.3078 11.3404 19.9237 9.96542C18.5392 8.59042 16.9257 7.85194 15.0832 7.75L18.9445 11.6667C19.2223 11.9444 19.3564 12.2732 19.347 12.6529C19.3378 13.0324 19.1944 13.361 18.9166 13.6388L13.4445 18.8888C13.1614 19.1482 12.8314 19.2779 12.4545 19.2779C12.0773 19.2779 11.7591 19.1482 11.4999 18.8888L7.74992 15.1667C7.8888 17.1203 8.64269 18.7383 10.0116 20.0208C11.3805 21.3033 12.9877 21.9446 14.8332 21.9446C15.5369 21.9446 16.2684 21.8335 17.0278 21.6113C17.787 21.389 18.4583 21.051 19.0416 20.5971L30.2916 31.8471Z" fill="#FAFAFA"/>
</svg>
