<svg width="40" height="40" viewBox="0 0 40 40" fill="none" xmlns="http://www.w3.org/2000/svg">
<path d="M18.1947 25.6667L27.6667 16.1946L25.7084 14.2638L18.278 21.6946L14.3055 17.7221L12.2917 19.7363L18.1947 25.6667ZM20.0001 36.6388C16.1204 35.6665 12.9283 33.4235 10.4238 29.9096C7.91911 26.3957 6.66675 22.5276 6.66675 18.3054V8.30542L20.0001 3.30542L33.3334 8.30542V18.3054C33.3334 22.5276 32.0811 26.3957 29.5763 29.9096C27.0719 33.4235 23.8798 35.6665 20.0001 36.6388ZM20.0001 33.75C23.0926 32.7408 25.6249 30.801 27.5972 27.9304C29.5694 25.0601 30.5555 21.8518 30.5555 18.3054V10.2363L20.0001 6.26375L9.44466 10.2363V18.3054C9.44466 21.8518 10.4308 25.0601 12.403 27.9304C14.3752 30.801 16.9076 32.7408 20.0001 33.75Z" fill="#FAFAFA"/>
</svg>
