<svg width="41" height="40" viewBox="0 0 41 40" fill="none" xmlns="http://www.w3.org/2000/svg">
<g clip-path="url(#clip0_283_481)">
<path d="M35.5 16.6667C35.5 28.3334 20.5 38.3334 20.5 38.3334C20.5 38.3334 5.5 28.3334 5.5 16.6667C5.5 12.6884 7.08035 8.87313 9.8934 6.06008C12.7064 3.24704 16.5218 1.66669 20.5 1.66669C24.4782 1.66669 28.2936 3.24704 31.1066 6.06008C33.9196 8.87313 35.5 12.6884 35.5 16.6667Z" stroke="#F4F0ED" stroke-width="4" stroke-linecap="round" stroke-linejoin="round"/>
<path d="M20.5 21.6667C23.2614 21.6667 25.5 19.4281 25.5 16.6667C25.5 13.9053 23.2614 11.6667 20.5 11.6667C17.7386 11.6667 15.5 13.9053 15.5 16.6667C15.5 19.4281 17.7386 21.6667 20.5 21.6667Z" stroke="#F4F0ED" stroke-width="4" stroke-linecap="round" stroke-linejoin="round"/>
</g>
<defs>
<clipPath id="clip0_283_481">
<rect width="40" height="40" fill="white" transform="translate(0.5)"/>
</clipPath>
</defs>
</svg>
