<svg width="41" height="40" viewBox="0 0 41 40" fill="none" xmlns="http://www.w3.org/2000/svg">
<path d="M37.1669 28.2V33.2C37.1688 33.6642 37.0737 34.1236 36.8877 34.5489C36.7018 34.9742 36.429 35.356 36.087 35.6698C35.745 35.9836 35.3412 36.2225 34.9015 36.3712C34.4618 36.5199 33.9958 36.5751 33.5335 36.5333C28.4049 35.9761 23.4785 34.2236 19.1502 31.4167C15.1233 28.8578 11.7091 25.4436 9.15021 21.4167C6.33351 17.0687 4.58062 12.1183 4.03355 6.96666C3.9919 6.50577 4.04667 6.04126 4.19438 5.6027C4.34209 5.16414 4.5795 4.76114 4.89149 4.41936C5.20348 4.07758 5.58322 3.8045 6.00653 3.61753C6.42984 3.43055 6.88745 3.33376 7.35021 3.33332H12.3502C13.1591 3.32536 13.9432 3.61179 14.5565 4.13921C15.1698 4.66663 15.5703 5.39907 15.6835 6.19999C15.8946 7.8001 16.286 9.3712 16.8502 10.8833C17.0745 11.4799 17.123 12.1282 16.9901 12.7515C16.8571 13.3747 16.5483 13.9468 16.1002 14.4L13.9835 16.5167C16.3561 20.6892 19.811 24.1441 23.9835 26.5167L26.1002 24.4C26.5534 23.9519 27.1255 23.6431 27.7487 23.5101C28.372 23.3772 29.0203 23.4257 29.6169 23.65C31.129 24.2142 32.7001 24.6056 34.3002 24.8167C35.1098 24.9309 35.8492 25.3387 36.3778 25.9625C36.9063 26.5863 37.1872 27.3826 37.1669 28.2Z" stroke="#F4F0ED" stroke-width="4" stroke-linecap="round" stroke-linejoin="round"/>
</svg>
