<svg width="32" height="30" viewBox="0 0 32 30" fill="none" xmlns="http://www.w3.org/2000/svg">
<path d="M13.7779 1.31097V6.65075C13.7779 7.37495 13.1909 7.96173 12.4667 7.96173C9.88286 7.96173 8.47737 10.6118 8.28257 15.8422H12.4667C13.1909 15.8422 13.7779 16.4296 13.7779 17.1535V28.4282C13.7779 29.152 13.1909 29.7389 12.4667 29.7389H1.31097C0.586505 29.7389 0 29.1515 0 28.4282V17.1535C0 14.6461 0.252459 12.3452 0.750136 10.3139C1.26055 8.23105 2.04406 6.40994 3.07819 4.90096C4.14229 3.35017 5.47334 2.13325 7.03467 1.28549C8.60653 0.432591 10.4344 0 12.4671 0C13.1909 0 13.7779 0.58678 13.7779 1.31097ZM30.6887 7.96182C31.4125 7.96182 32 7.37449 32 6.65085V1.31107C32 0.586872 31.4126 9.16197e-05 30.6887 9.16197e-05C28.6568 9.16197e-05 26.8286 0.432774 25.2573 1.28558C23.6957 2.13335 22.3639 3.35027 21.2996 4.90105C20.2659 6.41003 19.4824 8.23124 18.9719 10.3145C18.4744 12.3465 18.222 14.6474 18.222 17.1536V28.4283C18.222 29.1521 18.8092 29.739 19.5332 29.739H30.6886C31.4124 29.739 31.9994 29.1516 31.9994 28.4283V17.1535C31.9994 16.4297 31.4125 15.8422 30.6886 15.8422H26.5641C26.756 10.6119 28.141 7.96182 30.6887 7.96182Z" fill="#F7892A"/>
</svg>
