<svg width="132" height="24" viewBox="0 0 132 24" fill="none" xmlns="http://www.w3.org/2000/svg">
<path d="M5.825 22L7.45 14.975L2 10.25L9.2 9.625L12 3L14.8 9.625L22 10.25L16.55 14.975L18.175 22L12 18.275L5.825 22Z" fill="#F7892A"/>
<path d="M32.825 22L34.45 14.975L29 10.25L36.2 9.625L39 3L41.8 9.625L49 10.25L43.55 14.975L45.175 22L39 18.275L32.825 22Z" fill="#F7892A"/>
<path d="M59.825 22L61.45 14.975L56 10.25L63.2 9.625L66 3L68.8 9.625L76 10.25L70.55 14.975L72.175 22L66 18.275L59.825 22Z" fill="#F7892A"/>
<path d="M86.825 22L88.45 14.975L83 10.25L90.2 9.625L93 3L95.8 9.625L103 10.25L97.55 14.975L99.175 22L93 18.275L86.825 22Z" fill="#F7892A"/>
<path d="M113.825 22L115.45 14.975L110 10.25L117.2 9.625L120 3L122.8 9.625L130 10.25L124.55 14.975L126.175 22L120 18.275L113.825 22Z" fill="#F7892A"/>
</svg>
